<svg xmlns="http://www.w3.org/2000/svg" width="20" height="20" viewBox="0 0 20 20" fill="none">
  <path d="M7.50033 9.16663C7.04009 9.16663 6.66699 9.53972 6.66699 9.99996C6.66699 10.4602 7.04009 10.8333 7.50033 10.8333H12.5003C12.9606 10.8333 13.3337 10.4602 13.3337 9.99996C13.3337 9.53972 12.9606 9.16663 12.5003 9.16663H7.50033Z" fill="#98A2B3"/>
  <path fill-rule="evenodd" clip-rule="evenodd" d="M10.0003 1.66663C5.39795 1.66663 1.66699 5.39759 1.66699 9.99996C1.66699 14.6023 5.39795 18.3333 10.0003 18.3333C14.6027 18.3333 18.3337 14.6023 18.3337 9.99996C18.3337 5.39759 14.6027 1.66663 10.0003 1.66663ZM3.33366 9.99996C3.33366 6.31806 6.31843 3.33329 10.0003 3.33329C13.6822 3.33329 16.667 6.31806 16.667 9.99996C16.667 13.6819 13.6822 16.6666 10.0003 16.6666C6.31843 16.6666 3.33366 13.6819 3.33366 9.99996Z" fill="#98A2B3"/>
</svg>