<svg width="17" height="16" viewBox="0 0 17 16" fill="none" xmlns="http://www.w3.org/2000/svg">
<g id="icon / dots-v">
<g id="icon">
<path d="M9.5 2.66663C9.5 3.21891 9.05228 3.66663 8.5 3.66663C7.94772 3.66663 7.5 3.21891 7.5 2.66663C7.5 2.11434 7.94772 1.66663 8.5 1.66663C9.05228 1.66663 9.5 2.11434 9.5 2.66663Z" fill="black"/>
<path d="M9.5 7.99996C9.5 8.55224 9.05228 8.99996 8.5 8.99996C7.94772 8.99996 7.5 8.55224 7.5 7.99996C7.5 7.44767 7.94772 6.99996 8.5 6.99996C9.05228 6.99996 9.5 7.44767 9.5 7.99996Z" fill="black"/>
<path d="M8.5 14.3333C9.05228 14.3333 9.5 13.8856 9.5 13.3333C9.5 12.781 9.05228 12.3333 8.5 12.3333C7.94772 12.3333 7.5 12.781 7.5 13.3333C7.5 13.8856 7.94772 14.3333 8.5 14.3333Z" fill="black"/>
</g>
</g>
</svg>
