<svg width="20" height="20" viewBox="0 0 20 20" fill="none" xmlns="http://www.w3.org/2000/svg">
<g id="icon / download">
<g id="icon">
<path d="M13.9229 11.4225L10.5896 14.7559C10.2641 15.0813 9.73651 15.0813 9.41107 14.7559L6.07774 11.4225C5.7523 11.0971 5.7523 10.5695 6.07774 10.244C6.40317 9.9186 6.93081 9.9186 7.25625 10.244L9.16699 12.1548V2.49996C9.16699 2.03972 9.54009 1.66663 10.0003 1.66663C10.4606 1.66663 10.8337 2.03972 10.8337 2.49996V12.1548L12.7444 10.244C13.0698 9.9186 13.5975 9.9186 13.9229 10.244C14.2484 10.5695 14.2484 11.0971 13.9229 11.4225Z" fill="white"/>
<path d="M3.33366 14.5833C3.33366 14.1231 2.96056 13.75 2.50033 13.75C2.04009 13.75 1.66699 14.1231 1.66699 14.5833V15.8333C1.66699 17.6742 3.15938 19.1666 5.00033 19.1666H15.0003C16.8413 19.1666 18.3337 17.6742 18.3337 15.8333V14.5833C18.3337 14.1231 17.9606 13.75 17.5003 13.75C17.0401 13.75 16.667 14.1231 16.667 14.5833V15.8333C16.667 16.7538 15.9208 17.5 15.0003 17.5H5.00033C4.07985 17.5 3.33366 16.7538 3.33366 15.8333V14.5833Z" fill="white"/>
</g>
</g>
</svg>
