<svg width="20" height="20" viewBox="0 0 20 20" fill="none" xmlns="http://www.w3.org/2000/svg">
<g id="icon / filter">
<path id="icon" fill-rule="evenodd" clip-rule="evenodd" d="M4.40114 1.66663C2.89111 1.66663 1.66699 2.89075 1.66699 4.40078C1.66699 4.96175 1.83954 5.50915 2.16124 5.96871L7.19905 13.1656C7.39514 13.4457 7.50033 13.7794 7.50033 14.1213V15.964C7.50033 17.672 9.2978 18.7829 10.8255 18.0191C11.8519 17.5058 12.5003 16.4567 12.5003 15.3091V14.1213C12.5003 13.7794 12.6055 13.4457 12.8016 13.1656L17.8394 5.96871C18.1611 5.50915 18.3337 4.96175 18.3337 4.40078C18.3337 2.89075 17.1095 1.66663 15.5995 1.66663H4.40114ZM10.8337 15.3091C10.8337 15.8255 10.5419 16.2975 10.0801 16.5284C9.66061 16.7381 9.16699 16.4331 9.16699 15.964V14.1213C9.16699 13.4374 8.95663 12.7701 8.56443 12.2098L3.52663 5.01294C3.40103 4.83352 3.33366 4.6198 3.33366 4.40078C3.33366 3.81122 3.81159 3.33329 4.40114 3.33329H15.5995C16.1891 3.33329 16.667 3.81122 16.667 4.40078C16.667 4.6198 16.5996 4.83351 16.474 5.01294L11.4362 12.2098C11.044 12.7701 10.8337 13.4374 10.8337 14.1213V15.3091Z" fill="#8E35FD"/>
</g>
</svg>
