<?xml version="1.0" standalone="no"?>
<!DOCTYPE svg PUBLIC "-//W3C//DTD SVG 20010904//EN"
 "http://www.w3.org/TR/2001/REC-SVG-20010904/DTD/svg10.dtd">
<svg version="1.0" xmlns="http://www.w3.org/2000/svg"
 width="512.000000pt" height="512.000000pt" viewBox="0 0 512.000000 512.000000"
 preserveAspectRatio="xMidYMid meet">
<metadata>
Created by potrace 1.16, written by Peter Selinger 2001-2019
</metadata>
<g transform="translate(0.000000,512.000000) scale(0.100000,-0.100000)"
fill="#000000" stroke="none">
<path d="M2807 4759 c-19 -48 -31 -96 -19 -84 12 13 43 107 38 113 -3 2 -11
-11 -19 -29z"/>
<path d="M2210 4723 c0 -16 41 -105 46 -100 3 2 -3 24 -12 48 -18 46 -34 71
-34 52z"/>
<path d="M3067 4605 c-45 -53 -34 -61 12 -10 26 30 39 55 28 55 -1 0 -20 -20
-40 -45z"/>
<path d="M2512 4630 c-88 -12 -205 -53 -282 -98 -37 -21 -106 -78 -160 -132
-79 -78 -104 -112 -143 -186 -71 -139 -91 -222 -91 -384 0 -205 39 -318 173
-505 132 -183 165 -255 181 -398 6 -49 15 -98 21 -109 13 -25 3 -33 -53 -42
-73 -12 -96 -30 -114 -94 -32 -110 -24 -199 25 -277 11 -18 7 -25 -34 -68 -43
-46 -54 -51 -168 -84 -148 -42 -209 -71 -276 -130 -92 -80 -253 -309 -317
-450 -20 -43 -68 -123 -108 -178 -91 -125 -94 -131 -124 -235 -13 -47 -32
-116 -43 -155 -35 -120 -21 -360 27 -460 22 -46 65 -82 117 -96 98 -27 318 18
408 83 24 17 69 59 100 92 31 34 59 59 61 56 3 -3 -3 -72 -13 -155 -9 -82 -20
-194 -24 -247 l-8 -98 25 0 c24 0 25 2 32 100 17 272 61 460 135 585 26 44 58
100 69 125 36 74 89 138 151 183 80 57 116 116 115 185 l-2 53 76 67 c42 37
96 87 120 110 24 24 45 42 46 40 2 -1 9 -201 15 -443 7 -242 17 -447 22 -455
7 -10 8 148 4 432 -5 323 -4 448 4 448 6 0 11 -4 11 -10 0 -5 18 -10 39 -10
32 0 40 4 45 23 3 15 20 30 46 42 59 27 110 87 110 130 0 19 0 38 -1 41 -1 11
24 24 47 24 12 0 33 9 48 21 32 25 34 62 4 109 -13 20 -23 53 -24 78 -1 38 2
44 29 59 17 8 54 37 82 64 l51 49 175 -61 c178 -62 321 -130 383 -181 46 -38
97 -129 147 -264 52 -143 59 -158 65 -151 18 18 -92 298 -157 399 -51 79 -216
173 -400 228 -69 21 -159 58 -186 77 -10 7 -8 21 8 63 41 106 10 228 -77 313
-40 39 -44 46 -44 94 0 49 3 54 46 95 63 59 74 84 83 191 10 110 19 134 109
274 84 132 98 158 128 246 72 211 51 469 -53 646 -48 82 -161 195 -244 244
-125 74 -292 107 -437 87z m218 -64 c127 -27 276 -120 357 -222 91 -116 143
-266 143 -416 0 -171 -41 -302 -147 -468 -105 -166 -133 -240 -133 -357 0 -54
-17 -87 -69 -136 -32 -30 -41 -47 -46 -85 -13 -103 -4 -95 -108 -87 -51 4 -95
12 -99 18 -4 7 -8 41 -8 77 0 68 -10 90 -42 90 -14 0 -18 8 -18 35 0 24 -5 35
-15 35 -10 0 -15 -11 -15 -35 0 -27 -4 -35 -18 -35 -37 0 -55 -35 -57 -108
l-1 -67 -65 -8 c-35 -5 -72 -9 -83 -10 -30 -3 -55 58 -66 164 -15 148 -42 210
-170 389 -146 204 -187 327 -178 534 6 131 36 232 100 341 50 84 181 217 261
264 149 88 324 119 477 87z m-138 -1630 c4 -6 8 -39 8 -73 l0 -63 -55 0 -55 0
0 64 c0 54 3 67 20 79 22 15 70 11 82 -7z m136 -182 c61 -6 67 -19 15 -33 -61
-17 -375 -14 -399 3 -13 10 -16 18 -9 25 16 17 249 19 393 5z m183 -31 c52
-47 80 -103 86 -174 5 -47 1 -66 -21 -114 -40 -88 -89 -148 -145 -179 l-50
-27 29 57 c34 64 35 74 14 129 -9 22 -15 55 -14 74 0 18 -5 39 -11 47 -6 8
-12 40 -13 72 -2 53 0 60 38 104 23 26 42 47 43 48 2 0 21 -17 44 -37z m-637
0 l23 -27 -20 -45 c-17 -38 -18 -53 -10 -91 6 -25 13 -52 17 -62 6 -12 1 -18
-22 -23 -17 -3 -55 -21 -85 -39 l-55 -33 -20 27 c-35 47 -43 97 -31 182 6 42
17 85 24 95 12 16 87 39 138 42 10 0 28 -11 41 -26z m79 -78 c35 -22 174 -34
295 -24 101 8 123 6 110 -7 -11 -11 -143 -23 -290 -26 -163 -3 -180 2 -160 47
14 29 16 30 45 10z m405 -87 c-3 -8 -42 -17 -104 -25 -128 -15 -187 -16 -179
-3 3 6 25 10 48 11 23 0 78 6 122 13 108 18 117 18 113 4z m-305 -47 c19 -37
8 -43 -64 -34 -42 5 -52 10 -60 30 -5 13 -9 26 -9 29 0 2 27 4 59 4 56 0 60
-2 74 -29z m325 -23 c-6 -17 -55 -26 -173 -33 -120 -7 -104 6 35 28 125 19
143 20 138 5z m-294 -92 c-2 -52 -42 -89 -115 -106 -30 -7 -76 -26 -104 -42
l-50 -30 39 7 c21 3 46 10 55 15 18 11 134 40 139 35 2 -1 -9 -16 -23 -33 -14
-16 -37 -65 -51 -108 -56 -167 -85 -214 -168 -275 -54 -40 -16 -39 47 1 46 29
107 108 107 138 0 21 140 7 158 -16 19 -25 -3 -122 -28 -122 -6 0 -10 10 -10
23 0 16 -3 18 -9 8 -5 -7 -7 -23 -4 -35 2 -14 -1 -11 -11 9 l-14 30 -1 -33
c-2 -57 -26 -96 -107 -168 -106 -94 -197 -184 -215 -213 l-15 -24 -54 26
c-111 53 -202 156 -216 245 -6 36 -3 47 15 66 12 12 44 93 74 187 71 216 110
292 184 358 32 28 80 63 108 77 46 22 60 24 160 22 l110 -3 -1 -39z m306 24
c0 -10 -20 -14 -135 -30 -76 -10 -149 -12 -125 -3 20 8 198 40 233 42 15 0 27
-3 27 -9z m10 -49 c0 -5 -11 -12 -25 -15 -40 -10 -237 -27 -243 -21 -3 3 1 5
9 5 29 1 223 30 227 35 9 8 32 6 32 -4z m-38 -73 c-29 -47 -63 -65 -99 -52
-18 6 -28 17 -28 29 0 15 13 23 65 36 36 9 69 18 73 18 5 1 0 -14 -11 -31z
m-808 -125 c-14 -38 -48 -129 -76 -204 l-50 -137 -37 -5 c-20 -2 -61 -20 -91
-39 -30 -19 -90 -52 -132 -72 -93 -46 -155 -98 -208 -177 -22 -32 -79 -102
-126 -156 -47 -54 -95 -115 -106 -137 -23 -45 -38 -153 -20 -142 7 4 12 12 12
17 0 26 72 159 110 204 l42 49 -7 -39 -7 -40 22 34 c12 19 26 45 31 58 18 47
109 171 157 214 27 24 85 63 130 87 l81 43 6 -48 c15 -122 52 -198 135 -277
32 -30 87 -69 123 -87 l65 -33 -33 -40 c-18 -23 -56 -79 -85 -126 -64 -104
-91 -133 -155 -170 -62 -35 -202 -93 -278 -115 -31 -9 -57 -19 -57 -22 0 -8
82 6 199 33 57 13 105 23 107 22 8 -9 -155 -184 -195 -209 -78 -50 -171 -73
-294 -74 l-109 0 -28 32 c-40 45 -64 157 -64 303 0 107 3 123 37 223 20 59 37
117 37 130 1 37 34 99 113 208 42 58 95 144 117 193 66 142 253 406 293 414
20 4 72 -49 129 -131 22 -32 42 -56 45 -53 10 10 -57 103 -109 152 -59 55 -59
54 47 105 48 23 213 75 247 78 4 1 -4 -29 -18 -66z m817 0 c15 -40 -11 -58
-108 -75 -88 -16 -122 -10 -88 16 19 14 19 15 2 16 -21 0 -18 20 4 31 18 10
127 36 157 38 16 1 25 -7 33 -26z m37 -95 c16 -16 15 -73 0 -86 -7 -5 -60 -15
-117 -21 -92 -10 -107 -9 -120 4 -15 15 -14 15 2 9 10 -3 17 -1 17 5 0 6 -7
11 -15 11 -24 0 -17 29 9 36 13 3 64 16 112 28 49 13 91 24 95 25 3 0 10 -4
17 -11z m-108 -168 c0 -76 -65 -127 -146 -115 -46 6 -56 23 -29 45 8 7 20 30
25 51 11 42 25 50 34 21 6 -19 45 -46 54 -38 3 4 0 12 -6 18 -18 18 -15 28 11
38 43 17 57 12 57 -20z m-894 -158 c1 -69 35 -135 103 -202 64 -62 166 -120
214 -120 33 0 33 -6 -8 -69 -22 -36 -30 -41 -64 -41 -52 0 -174 62 -229 117
-74 75 -127 220 -108 298 5 18 19 32 49 45 23 11 42 20 42 20 0 0 0 -21 1 -48z"/>
<path d="M2465 4226 c-73 -19 -121 -41 -177 -83 -73 -53 -165 -183 -130 -183
4 0 20 20 35 45 45 71 116 133 196 173 72 36 79 37 180 37 85 -1 117 -5 160
-23 30 -12 50 -17 45 -12 -20 20 -125 50 -191 55 -40 3 -88 -1 -118 -9z"/>
<path d="M2830 4137 c0 -2 15 -16 33 -33 l32 -29 -29 33 c-28 30 -36 37 -36
29z"/>
<path d="M2085 3890 c3 -5 8 -10 11 -10 2 0 4 5 4 10 0 6 -5 10 -11 10 -5 0
-7 -4 -4 -10z"/>
<path d="M3066 3783 c-3 -3 -6 -17 -6 -29 0 -50 -51 -179 -109 -277 -70 -118
-106 -202 -116 -269 -11 -76 7 -80 22 -4 16 79 41 135 118 266 30 52 64 119
75 148 33 88 43 192 16 165z"/>
<path d="M2615 3604 l-7 -75 -36 3 -37 3 -3 68 c-4 89 -22 86 -22 -4 l0 -71
-26 6 c-14 4 -41 1 -59 -6 -46 -16 -75 0 -104 59 -16 34 -25 43 -33 35 -8 -8
1 -38 35 -110 44 -93 120 -282 147 -365 11 -36 10 -39 -14 -58 -22 -17 -26
-29 -26 -70 0 -37 4 -49 15 -49 11 0 15 12 15 44 0 28 6 48 16 57 21 17 131
24 166 10 23 -9 27 -17 30 -56 4 -58 22 -63 26 -7 3 47 -18 92 -43 92 -7 0
-16 4 -19 9 -7 11 64 206 134 369 36 85 49 127 42 134 -7 7 -18 -5 -36 -40
-14 -28 -30 -54 -36 -57 -6 -4 -31 -1 -56 6 l-44 13 0 68 c0 37 -4 68 -9 68
-5 0 -12 -34 -16 -76z m-85 -129 c0 -19 -3 -35 -7 -35 -16 0 -93 57 -86 63 3
4 26 7 50 7 43 0 43 0 43 -35z m140 26 c0 -5 -16 -21 -36 -36 -35 -27 -37 -27
-50 -10 -8 10 -14 27 -14 37 0 15 8 18 50 18 28 0 50 -4 50 -9z m-178 -79 l38
-17 0 -142 c0 -81 -4 -143 -9 -143 -5 0 -15 17 -22 38 -10 30 -104 269 -126
321 -4 8 12 3 38 -13 24 -15 61 -35 81 -44z m238 56 c0 -19 -139 -353 -148
-356 -21 -7 -13 33 37 184 38 115 54 150 73 160 21 12 38 17 38 12z m-110 -76
c0 -12 -49 -154 -55 -160 -3 -3 -5 34 -5 81 l0 87 30 0 c17 0 30 -4 30 -8z"/>
<path d="M1958 4535 c5 -11 22 -31 37 -45 23 -21 26 -21 17 -5 -5 11 -22 31
-37 45 -23 21 -26 21 -17 5z"/>
<path d="M3407 4159 c-43 -17 -76 -34 -73 -37 6 -6 145 45 161 59 16 15 -7 9
-88 -22z"/>
<path d="M1740 4155 c0 -6 76 -45 87 -45 4 0 3 4 -2 9 -12 11 -85 42 -85 36z"/>
<path d="M3350 3721 c8 -5 42 -14 75 -21 33 -7 66 -15 75 -18 10 -3 12 -2 5 6
-5 6 -41 18 -78 26 -76 18 -100 20 -77 7z"/>
<path d="M1808 3319 c-43 -23 -78 -46 -78 -51 0 -9 145 64 165 83 19 19 -12 7
-87 -32z"/>
<path d="M3229 3320 c24 -22 49 -40 55 -40 6 0 -9 18 -34 40 -25 22 -49 39
-55 39 -5 0 10 -18 34 -39z"/>
<path d="M3560 1981 c0 -6 4 -13 10 -16 6 -3 7 1 4 9 -7 18 -14 21 -14 7z"/>
<path d="M3330 1818 c0 -2 -5 -113 -10 -248 -5 -135 -16 -312 -25 -395 -22
-215 -13 -336 31 -436 31 -71 34 -86 39 -210 9 -215 13 -239 37 -239 21 0 21
3 15 148 -6 173 -4 179 77 232 104 69 190 75 299 21 37 -19 38 -19 21 0 -33
37 -114 69 -175 69 -47 0 -72 -7 -142 -43 l-84 -42 -26 57 -25 57 53 0 c30 -1
69 4 89 11 33 10 147 69 136 70 -3 0 -37 -9 -75 -20 -120 -34 -207 -19 -222
39 -3 13 -3 102 -1 197 5 138 9 179 22 196 9 13 36 51 61 86 25 34 41 62 36
62 -4 0 -28 -16 -52 -35 l-44 -35 -6 73 c-4 39 -7 140 -8 224 0 89 -5 154 -11
158 -5 3 -10 5 -10 3z"/>
<path d="M3678 1590 c4 -155 5 -155 46 -255 39 -96 41 -104 39 -195 -3 -107 1
-123 65 -270 25 -58 48 -130 52 -160 l7 -55 2 52 c1 37 -8 74 -28 126 -41 102
-54 183 -46 286 7 94 4 105 -71 286 -29 70 -39 111 -46 185 -15 162 -24 162
-20 0z"/>
<path d="M2691 878 c0 -155 6 -393 13 -528 l13 -245 -1 524 c-1 410 -4 525
-13 529 -10 3 -13 -57 -12 -280z"/>
<path d="M1946 663 c-3 -10 -21 -92 -41 -183 -20 -91 -39 -173 -42 -184 -8
-29 16 -9 28 22 10 25 79 337 79 354 0 15 -19 8 -24 -9z"/>
</g>
</svg>