<svg width="143" height="29" viewBox="0 0 143 29" fill="none" xmlns="http://www.w3.org/2000/svg">
<g filter="url(#filter0_d_2006_2953)">
<mask id="path-1-outside-1_2006_2953" maskUnits="userSpaceOnUse" x="2" y="0.529541" width="138" height="24" fill="black">
<rect fill="white" x="2" y="0.529541" width="138" height="24"/>
<path d="M18.0611 3.86167H22.4102V18.5295H19.7125V6.12852L15.3583 18.5295H12.076L7.77311 6.13365V18.5295H5.16777V3.86167H9.59377L13.8044 16.0011L18.0611 3.86167ZM23.8456 11.1956C23.8456 6.62087 26.7176 3.55396 30.8718 3.55396C35.0209 3.55396 37.9031 6.62087 37.9031 11.1956C37.9031 15.7703 35.0209 18.8373 30.8718 18.8373C26.7176 18.8373 23.8456 15.7703 23.8456 11.1956ZM26.5535 11.1956C26.5535 14.5241 28.1485 16.4473 30.8718 16.4473C33.59 16.4473 35.1952 14.5241 35.1952 11.1956C35.1952 7.86713 33.59 5.94389 30.8718 5.94389C28.1485 5.94389 26.5535 7.86713 26.5535 11.1956ZM52.5519 3.86167V18.5295H48.5054L41.9306 6.00031V18.5295H39.3252V3.86167H43.6794L49.9466 15.7703V3.86167H52.5519ZM64.1514 3.86167V6.24135H56.8278V10.2622H63.5463V12.6009H56.8278V18.5295H54.1301V3.86167H64.1514ZM65.2488 12.4778V3.86167H67.9465V12.3649C67.9465 15.0318 69.2543 16.4473 71.5775 16.4473C73.8957 16.4473 75.2086 15.0318 75.2086 12.3649V3.86167H77.9063V12.4778C77.9063 16.4165 75.3778 18.8373 71.5775 18.8373C67.7721 18.8373 65.2488 16.4165 65.2488 12.4778ZM92.6193 3.86167V18.5295H88.5728L81.9979 6.00031V18.5295H79.3926V3.86167H83.7468L90.014 15.7703V3.86167H92.6193ZM94.1975 18.5295V3.86167H99.2851C103.762 3.86167 106.763 6.7696 106.763 11.1956C106.763 15.6216 103.762 18.5295 99.2851 18.5295H94.1975ZM96.8541 16.1396H99.2492C102.27 16.1396 104.055 14.3241 104.055 11.1956C104.055 8.06715 102.27 6.25161 99.2492 6.25161H96.8541V16.1396ZM121.074 3.86167H125.423V18.5295H122.726V6.12852L118.372 18.5295H115.089L110.786 6.13365V18.5295H108.181V3.86167H112.607L116.818 16.0011L121.074 3.86167ZM127.013 3.86167H137.034V6.24135H129.71V10.0571H136.429V12.3649H129.71V16.1499H137.229V18.5295H127.013V3.86167Z"/>
</mask>
<path d="M18.0611 3.86167H22.4102V18.5295H19.7125V6.12852L15.3583 18.5295H12.076L7.77311 6.13365V18.5295H5.16777V3.86167H9.59377L13.8044 16.0011L18.0611 3.86167ZM23.8456 11.1956C23.8456 6.62087 26.7176 3.55396 30.8718 3.55396C35.0209 3.55396 37.9031 6.62087 37.9031 11.1956C37.9031 15.7703 35.0209 18.8373 30.8718 18.8373C26.7176 18.8373 23.8456 15.7703 23.8456 11.1956ZM26.5535 11.1956C26.5535 14.5241 28.1485 16.4473 30.8718 16.4473C33.59 16.4473 35.1952 14.5241 35.1952 11.1956C35.1952 7.86713 33.59 5.94389 30.8718 5.94389C28.1485 5.94389 26.5535 7.86713 26.5535 11.1956ZM52.5519 3.86167V18.5295H48.5054L41.9306 6.00031V18.5295H39.3252V3.86167H43.6794L49.9466 15.7703V3.86167H52.5519ZM64.1514 3.86167V6.24135H56.8278V10.2622H63.5463V12.6009H56.8278V18.5295H54.1301V3.86167H64.1514ZM65.2488 12.4778V3.86167H67.9465V12.3649C67.9465 15.0318 69.2543 16.4473 71.5775 16.4473C73.8957 16.4473 75.2086 15.0318 75.2086 12.3649V3.86167H77.9063V12.4778C77.9063 16.4165 75.3778 18.8373 71.5775 18.8373C67.7721 18.8373 65.2488 16.4165 65.2488 12.4778ZM92.6193 3.86167V18.5295H88.5728L81.9979 6.00031V18.5295H79.3926V3.86167H83.7468L90.014 15.7703V3.86167H92.6193ZM94.1975 18.5295V3.86167H99.2851C103.762 3.86167 106.763 6.7696 106.763 11.1956C106.763 15.6216 103.762 18.5295 99.2851 18.5295H94.1975ZM96.8541 16.1396H99.2492C102.27 16.1396 104.055 14.3241 104.055 11.1956C104.055 8.06715 102.27 6.25161 99.2492 6.25161H96.8541V16.1396ZM121.074 3.86167H125.423V18.5295H122.726V6.12852L118.372 18.5295H115.089L110.786 6.13365V18.5295H108.181V3.86167H112.607L116.818 16.0011L121.074 3.86167ZM127.013 3.86167H137.034V6.24135H129.71V10.0571H136.429V12.3649H129.71V16.1499H137.229V18.5295H127.013V3.86167Z" fill="#BE8CFE"/>
<path d="M18.0611 3.86167V1.29736H16.2429L15.6413 3.01314L18.0611 3.86167ZM22.4102 3.86167H24.9745V1.29736H22.4102V3.86167ZM22.4102 18.5295V21.0939H24.9745V18.5295H22.4102ZM19.7125 18.5295H17.1482V21.0939H19.7125V18.5295ZM19.7125 6.12852H22.2769L17.293 5.279L19.7125 6.12852ZM15.3583 18.5295V21.0939H17.1758L17.7779 19.3791L15.3583 18.5295ZM12.076 18.5295L9.65351 19.3705L10.2517 21.0939H12.076V18.5295ZM7.77311 6.13365L10.1956 5.29274L5.2088 6.13365H7.77311ZM7.77311 18.5295V21.0939H10.3374V18.5295H7.77311ZM5.16777 18.5295H2.60346V21.0939H5.16777V18.5295ZM5.16777 3.86167V1.29736H2.60346V3.86167H5.16777ZM9.59377 3.86167L12.0165 3.02135L11.4185 1.29736H9.59377V3.86167ZM13.8044 16.0011L11.3817 16.8415L13.7912 23.7883L16.2242 16.8497L13.8044 16.0011ZM18.0611 6.42599H22.4102V1.29736H18.0611V6.42599ZM19.8459 3.86167V18.5295H24.9745V3.86167H19.8459ZM22.4102 15.9652H19.7125V21.0939H22.4102V15.9652ZM22.2769 18.5295V6.12852H17.1482V18.5295H22.2769ZM17.293 5.279L12.9388 17.68L17.7779 19.3791L22.1321 6.97805L17.293 5.279ZM15.3583 15.9652H12.076V21.0939H15.3583V15.9652ZM14.4985 17.6886L10.1956 5.29274L5.3506 6.97457L9.65351 19.3705L14.4985 17.6886ZM5.2088 6.13365V18.5295H10.3374V6.13365H5.2088ZM7.77311 15.9652H5.16777V21.0939H7.77311V15.9652ZM7.73208 18.5295V3.86167H2.60346V18.5295H7.73208ZM5.16777 6.42599H9.59377V1.29736H5.16777V6.42599ZM7.17106 4.702L11.3817 16.8415L16.2271 15.1608L12.0165 3.02135L7.17106 4.702ZM16.2242 16.8497L20.481 4.71021L15.6413 3.01314L11.3845 15.1526L16.2242 16.8497ZM26.4099 11.1956C26.4099 9.44548 26.9528 8.19084 27.684 7.39985C28.4006 6.62459 29.4561 6.11827 30.8718 6.11827V0.989643C28.1333 0.989643 25.6757 2.01678 23.9178 3.91866C22.1743 5.80482 21.2813 8.371 21.2813 11.1956H26.4099ZM30.8718 6.11827C32.2845 6.11827 33.3424 6.62437 34.0616 7.40131C34.7948 8.1933 35.3388 9.44793 35.3388 11.1956H40.4675C40.4675 8.36855 39.5703 5.80236 37.8251 3.9172C36.066 2.017 33.6081 0.989643 30.8718 0.989643V6.11827ZM35.3388 11.1956C35.3388 12.9433 34.7948 14.1979 34.0616 14.9899C33.3424 15.7668 32.2845 16.2729 30.8718 16.2729V21.4016C33.6081 21.4016 36.066 20.3742 37.8251 18.474C39.5703 16.5889 40.4675 14.0227 40.4675 11.1956H35.3388ZM30.8718 16.2729C29.4561 16.2729 28.4006 15.7666 27.684 14.9914C26.9528 14.2004 26.4099 12.9457 26.4099 11.1956H21.2813C21.2813 14.0202 22.1743 16.5864 23.9178 18.4726C25.6757 20.3744 28.1333 21.4016 30.8718 21.4016V16.2729ZM23.9892 11.1956C23.9892 13.2331 24.4745 15.1983 25.7125 16.7005C27.0072 18.2715 28.8587 19.0116 30.8718 19.0116V13.883C30.1616 13.883 29.8539 13.6616 29.6703 13.4387C29.43 13.1473 29.1178 12.4866 29.1178 11.1956H23.9892ZM30.8718 19.0116C32.8831 19.0116 34.7339 18.2711 36.0296 16.7031C37.27 15.202 37.7595 13.2368 37.7595 11.1956H32.6309C32.6309 12.4829 32.3179 13.1436 32.076 13.4362C31.8895 13.6619 31.5787 13.883 30.8718 13.883V19.0116ZM37.7595 11.1956C37.7595 9.15444 37.27 7.18925 36.0296 5.68815C34.7339 4.12014 32.8831 3.37958 30.8718 3.37958V8.50821C31.5787 8.50821 31.8895 8.72927 32.076 8.95499C32.3179 9.24763 32.6309 9.90829 32.6309 11.1956H37.7595ZM30.8718 3.37958C28.8587 3.37958 27.0072 4.11975 25.7125 5.69068C24.4745 7.19293 23.9892 9.15812 23.9892 11.1956H29.1178C29.1178 9.90462 29.43 9.24395 29.6703 8.95247C29.8539 8.72966 30.1616 8.50821 30.8718 8.50821V3.37958ZM52.5519 3.86167H55.1162V1.29736H52.5519V3.86167ZM52.5519 18.5295V21.0939H55.1162V18.5295H52.5519ZM48.5054 18.5295L46.2348 19.7211L46.9552 21.0939H48.5054V18.5295ZM41.9306 6.00031L44.2012 4.80875L39.3662 6.00031H41.9306ZM41.9306 18.5295V21.0939H44.4949V18.5295H41.9306ZM39.3252 18.5295H36.7609V21.0939H39.3252V18.5295ZM39.3252 3.86167V1.29736H36.7609V3.86167H39.3252ZM43.6794 3.86167L45.9487 2.66743L45.2276 1.29736H43.6794V3.86167ZM49.9466 15.7703L47.6773 16.9646L52.5109 15.7703H49.9466ZM49.9466 3.86167V1.29736H47.3823V3.86167H49.9466ZM49.9876 3.86167V18.5295H55.1162V3.86167H49.9876ZM52.5519 15.9652H48.5054V21.0939H52.5519V15.9652ZM50.7761 17.338L44.2012 4.80875L39.6599 7.19187L46.2348 19.7211L50.7761 17.338ZM39.3662 6.00031V18.5295H44.4949V6.00031H39.3662ZM41.9306 15.9652H39.3252V21.0939H41.9306V15.9652ZM41.8895 18.5295V3.86167H36.7609V18.5295H41.8895ZM39.3252 6.42599H43.6794V1.29736H39.3252V6.42599ZM41.4102 5.05591L47.6773 16.9646L52.2158 14.5761L45.9487 2.66743L41.4102 5.05591ZM52.5109 15.7703V3.86167H47.3823V15.7703H52.5109ZM49.9466 6.42599H52.5519V1.29736H49.9466V6.42599ZM64.1514 3.86167H66.7158V1.29736H64.1514V3.86167ZM64.1514 6.24135V8.80567H66.7158V6.24135H64.1514ZM56.8278 6.24135V3.67704H54.2635V6.24135H56.8278ZM56.8278 10.2622H54.2635V12.8265H56.8278V10.2622ZM63.5463 10.2622H66.1106V7.69788H63.5463V10.2622ZM63.5463 12.6009V15.1652H66.1106V12.6009H63.5463ZM56.8278 12.6009V10.0365H54.2635V12.6009H56.8278ZM56.8278 18.5295V21.0939H59.3921V18.5295H56.8278ZM54.1301 18.5295H51.5658V21.0939H54.1301V18.5295ZM54.1301 3.86167V1.29736H51.5658V3.86167H54.1301ZM61.5871 3.86167V6.24135H66.7158V3.86167H61.5871ZM64.1514 3.67704H56.8278V8.80567H64.1514V3.67704ZM54.2635 6.24135V10.2622H59.3921V6.24135H54.2635ZM56.8278 12.8265H63.5463V7.69788H56.8278V12.8265ZM60.982 10.2622V12.6009H66.1106V10.2622H60.982ZM63.5463 10.0365H56.8278V15.1652H63.5463V10.0365ZM54.2635 12.6009V18.5295H59.3921V12.6009H54.2635ZM56.8278 15.9652H54.1301V21.0939H56.8278V15.9652ZM56.6944 18.5295V3.86167H51.5658V18.5295H56.6944ZM54.1301 6.42599H64.1514V1.29736H54.1301V6.42599ZM65.2488 3.86167V1.29736H62.6845V3.86167H65.2488ZM67.9465 3.86167H70.5108V1.29736H67.9465V3.86167ZM75.2086 3.86167V1.29736H72.6443V3.86167H75.2086ZM77.9063 3.86167H80.4706V1.29736H77.9063V3.86167ZM67.8131 12.4778V3.86167H62.6845V12.4778H67.8131ZM65.2488 6.42599H67.9465V1.29736H65.2488V6.42599ZM65.3822 3.86167V12.3649H70.5108V3.86167H65.3822ZM65.3822 12.3649C65.3822 14.0832 65.8024 15.8054 66.9831 17.1199C68.2032 18.4781 69.8826 19.0116 71.5775 19.0116V13.883C70.9492 13.883 70.813 13.7088 70.7984 13.6925C70.7445 13.6325 70.5108 13.3136 70.5108 12.3649H65.3822ZM71.5775 19.0116C73.2712 19.0116 74.9493 18.4773 76.1691 17.1209C77.3502 15.8074 77.7729 14.0856 77.7729 12.3649H72.6443C72.6443 13.3112 72.4105 13.6305 72.3556 13.6916C72.3394 13.7096 72.202 13.883 71.5775 13.883V19.0116ZM77.7729 12.3649V3.86167H72.6443V12.3649H77.7729ZM75.2086 6.42599H77.9063V1.29736H75.2086V6.42599ZM75.3419 3.86167V12.4778H80.4706V3.86167H75.3419ZM75.3419 12.4778C75.3419 13.8865 74.902 14.7778 74.3617 15.3134C73.8172 15.8532 72.927 16.2729 71.5775 16.2729V21.4016C74.0283 21.4016 76.3026 20.6109 77.9723 18.9557C79.6463 17.2962 80.4706 15.0078 80.4706 12.4778H75.3419ZM71.5775 16.2729C70.2247 16.2729 69.3352 15.8528 68.792 15.3139C68.2527 14.779 67.8131 13.888 67.8131 12.4778H62.6845C62.6845 15.0063 63.5066 17.295 65.1803 18.9552C66.85 20.6114 69.1249 21.4016 71.5775 21.4016V16.2729ZM92.6193 3.86167H95.1836V1.29736H92.6193V3.86167ZM92.6193 18.5295V21.0939H95.1836V18.5295H92.6193ZM88.5728 18.5295L86.3022 19.7211L87.0225 21.0939H88.5728V18.5295ZM81.9979 6.00031L84.2686 4.80875L79.4336 6.00031H81.9979ZM81.9979 18.5295V21.0939H84.5622V18.5295H81.9979ZM79.3926 18.5295H76.8283V21.0939H79.3926V18.5295ZM79.3926 3.86167V1.29736H76.8283V3.86167H79.3926ZM83.7468 3.86167L86.016 2.66743L85.295 1.29736H83.7468V3.86167ZM90.014 15.7703L87.7447 16.9646L92.5783 15.7703H90.014ZM90.014 3.86167V1.29736H87.4497V3.86167H90.014ZM90.055 3.86167V18.5295H95.1836V3.86167H90.055ZM92.6193 15.9652H88.5728V21.0939H92.6193V15.9652ZM90.8435 17.338L84.2686 4.80875L79.7273 7.19187L86.3022 19.7211L90.8435 17.338ZM79.4336 6.00031V18.5295H84.5622V6.00031H79.4336ZM81.9979 15.9652H79.3926V21.0939H81.9979V15.9652ZM81.9569 18.5295V3.86167H76.8283V18.5295H81.9569ZM79.3926 6.42599H83.7468V1.29736H79.3926V6.42599ZM81.4775 5.05591L87.7447 16.9646L92.2832 14.5761L86.016 2.66743L81.4775 5.05591ZM92.5783 15.7703V3.86167H87.4497V15.7703H92.5783ZM90.014 6.42599H92.6193V1.29736H90.014V6.42599ZM94.1975 18.5295H91.6332V21.0939H94.1975V18.5295ZM94.1975 3.86167V1.29736H91.6332V3.86167H94.1975ZM96.8541 16.1396H94.2898V18.7039H96.8541V16.1396ZM96.8541 6.25161V3.6873H94.2898V6.25161H96.8541ZM96.7618 18.5295V3.86167H91.6332V18.5295H96.7618ZM94.1975 6.42599H99.2851V1.29736H94.1975V6.42599ZM99.2851 6.42599C100.961 6.42599 102.151 6.96065 102.91 7.70266C103.664 8.43891 104.198 9.57957 104.198 11.1956H109.327C109.327 8.38564 108.362 5.85933 106.495 4.03512C104.635 2.21666 102.087 1.29736 99.2851 1.29736V6.42599ZM104.198 11.1956C104.198 12.8116 103.664 13.9523 102.91 14.6886C102.151 15.4306 100.961 15.9652 99.2851 15.9652V21.0939C102.087 21.0939 104.635 20.1746 106.495 18.3561C108.362 16.5319 109.327 14.0056 109.327 11.1956H104.198ZM99.2851 15.9652H94.1975V21.0939H99.2851V15.9652ZM96.8541 18.7039H99.2492V13.5753H96.8541V18.7039ZM99.2492 18.7039C101.277 18.7039 103.205 18.0832 104.621 16.6309C106.028 15.1871 106.619 13.24 106.619 11.1956H101.49C101.49 12.2797 101.189 12.8046 100.949 13.0507C100.717 13.2883 100.243 13.5753 99.2492 13.5753V18.7039ZM106.619 11.1956C106.619 9.15121 106.028 7.20412 104.621 5.76033C103.205 4.30805 101.277 3.6873 99.2492 3.6873V8.81593C100.243 8.81593 100.717 9.10294 100.949 9.34055C101.189 9.58663 101.49 10.1115 101.49 11.1956H106.619ZM99.2492 3.6873H96.8541V8.81593H99.2492V3.6873ZM94.2898 6.25161V16.1396H99.4184V6.25161H94.2898ZM121.074 3.86167V1.29736H119.256L118.655 3.01314L121.074 3.86167ZM125.423 3.86167H127.988V1.29736H125.423V3.86167ZM125.423 18.5295V21.0939H127.988V18.5295H125.423ZM122.726 18.5295H120.161V21.0939H122.726V18.5295ZM122.726 6.12852H125.29L120.306 5.279L122.726 6.12852ZM118.372 18.5295V21.0939H120.189L120.791 19.3791L118.372 18.5295ZM115.089 18.5295L112.667 19.3705L113.265 21.0939H115.089V18.5295ZM110.786 6.13365L113.209 5.29274L108.222 6.13365H110.786ZM110.786 18.5295V21.0939H113.351V18.5295H110.786ZM108.181 18.5295H105.617V21.0939H108.181V18.5295ZM108.181 3.86167V1.29736H105.617V3.86167H108.181ZM112.607 3.86167L115.03 3.02135L114.432 1.29736H112.607V3.86167ZM116.818 16.0011L114.395 16.8415L116.804 23.7883L119.237 16.8497L116.818 16.0011ZM121.074 6.42599H125.423V1.29736H121.074V6.42599ZM122.859 3.86167V18.5295H127.988V3.86167H122.859ZM125.423 15.9652H122.726V21.0939H125.423V15.9652ZM125.29 18.5295V6.12852H120.161V18.5295H125.29ZM120.306 5.279L115.952 17.68L120.791 19.3791L125.145 6.97805L120.306 5.279ZM118.372 15.9652H115.089V21.0939H118.372V15.9652ZM117.512 17.6886L113.209 5.29274L108.364 6.97457L112.667 19.3705L117.512 17.6886ZM108.222 6.13365V18.5295H113.351V6.13365H108.222ZM110.786 15.9652H108.181V21.0939H110.786V15.9652ZM110.745 18.5295V3.86167H105.617V18.5295H110.745ZM108.181 6.42599H112.607V1.29736H108.181V6.42599ZM110.184 4.702L114.395 16.8415L119.24 15.1608L115.03 3.02135L110.184 4.702ZM119.237 16.8497L123.494 4.71021L118.655 3.01314L114.398 15.1526L119.237 16.8497ZM127.013 3.86167V1.29736H124.448V3.86167H127.013ZM137.034 3.86167H139.598V1.29736H137.034V3.86167ZM137.034 6.24135V8.80567H139.598V6.24135H137.034ZM129.71 6.24135V3.67704H127.146V6.24135H129.71ZM129.71 10.0571H127.146V12.6214H129.71V10.0571ZM136.429 10.0571H138.993V7.49274H136.429V10.0571ZM136.429 12.3649V14.9292H138.993V12.3649H136.429ZM129.71 12.3649V9.80062H127.146V12.3649H129.71ZM129.71 16.1499H127.146V18.7142H129.71V16.1499ZM137.229 16.1499H139.793V13.5855H137.229V16.1499ZM137.229 18.5295V21.0939H139.793V18.5295H137.229ZM127.013 18.5295H124.448V21.0939H127.013V18.5295ZM127.013 6.42599H137.034V1.29736H127.013V6.42599ZM134.47 3.86167V6.24135H139.598V3.86167H134.47ZM137.034 3.67704H129.71V8.80567H137.034V3.67704ZM127.146 6.24135V10.0571H132.275V6.24135H127.146ZM129.71 12.6214H136.429V7.49274H129.71V12.6214ZM133.865 10.0571V12.3649H138.993V10.0571H133.865ZM136.429 9.80062H129.71V14.9292H136.429V9.80062ZM127.146 12.3649V16.1499H132.275V12.3649H127.146ZM129.71 18.7142H137.229V13.5855H129.71V18.7142ZM134.665 16.1499V18.5295H139.793V16.1499H134.665ZM137.229 15.9652H127.013V21.0939H137.229V15.9652ZM129.577 18.5295V3.86167H124.448V18.5295H129.577Z" fill="#3A0942" mask="url(#path-1-outside-1_2006_2953)"/>
</g>
<defs>
<filter id="filter0_d_2006_2953" x="0.0392032" y="0.989624" width="142.318" height="27.9273" filterUnits="userSpaceOnUse" color-interpolation-filters="sRGB">
<feFlood flood-opacity="0" result="BackgroundImageFix"/>
<feColorMatrix in="SourceAlpha" type="matrix" values="0 0 0 0 0 0 0 0 0 0 0 0 0 0 0 0 0 0 127 0" result="hardAlpha"/>
<feOffset dy="2.56431"/>
<feGaussianBlur stdDeviation="1.28216"/>
<feComposite in2="hardAlpha" operator="out"/>
<feColorMatrix type="matrix" values="0 0 0 0 0 0 0 0 0 0 0 0 0 0 0 0 0 0 0.25 0"/>
<feBlend mode="normal" in2="BackgroundImageFix" result="effect1_dropShadow_2006_2953"/>
<feBlend mode="normal" in="SourceGraphic" in2="effect1_dropShadow_2006_2953" result="shape"/>
</filter>
</defs>
</svg>
