<svg xmlns="http://www.w3.org/2000/svg" width="24" height="25" viewBox="0 0 24 25" fill="none">
  <path fill-rule="evenodd" clip-rule="evenodd" d="M12.8906 2.70437C14.2197 1.8183 16 2.77109 16 4.36848V20.6314C16 22.2288 14.2197 23.1816 12.8906 22.2955L9.01149 19.7095C8.76301 19.5438 8.48058 19.4359 8.18494 19.3937L4.43431 18.8579C2.46372 18.5764 1 16.8887 1 14.8981V10.1018C1 8.11124 2.46372 6.42356 4.43431 6.14205L8.18494 5.60624C8.48058 5.56401 8.76301 5.4561 9.01149 5.29045L12.8906 2.70437ZM14 4.36848L10.1209 6.95455C9.62392 7.28586 9.05906 7.50167 8.46778 7.58614L4.71716 8.12195C3.73186 8.2627 3 9.10654 3 10.1018V14.8981C3 15.8934 3.73186 16.7372 4.71715 16.878L8.46778 17.4138C9.05906 17.4982 9.62392 17.7141 10.1209 18.0454L14 20.6314L14 4.36848Z" fill="#344054"/>
  <path d="M16.5592 15.089C16.372 14.5694 16.6414 13.9964 17.161 13.8092C17.686 13.62 18 13.113 18 12.5C18 11.8869 17.686 11.38 17.161 11.1907C16.6414 11.0035 16.372 10.4305 16.5592 9.91092C16.7465 9.39135 17.3195 9.12194 17.839 9.30919C19.314 9.84072 20 11.2234 20 12.5C20 13.7765 19.314 15.1592 17.839 15.6907C17.3195 15.878 16.7465 15.6086 16.5592 15.089Z" fill="#344054"/>
  <path d="M17.661 17.5592C17.1414 17.7464 16.872 18.3194 17.0592 18.839C17.2465 19.3586 17.8195 19.628 18.339 19.4407C21.4806 18.3086 23 15.3512 23 12.5C23 9.6487 21.4806 6.69135 18.339 5.55918C17.8195 5.37194 17.2465 5.64135 17.0592 6.16092C16.872 6.6805 17.1414 7.25349 17.661 7.44073C19.8527 8.23059 21 10.3122 21 12.5C21 14.6877 19.8527 16.7693 17.661 17.5592Z" fill="#344054"/>
</svg>