<svg xmlns="http://www.w3.org/2000/svg" width="20" height="20" viewBox="0 0 20 20" fill="none">
  <path d="M8.82178 7.64294C8.49635 7.3175 7.96871 7.3175 7.64327 7.64294C7.31784 7.96837 7.31784 8.49601 7.64327 8.82145L8.82178 9.99996L7.64327 11.1785C7.31784 11.5039 7.31784 12.0315 7.64327 12.357C7.96871 12.6824 8.49635 12.6824 8.82178 12.357L10.0003 11.1785L11.1788 12.357C11.5042 12.6824 12.0319 12.6824 12.3573 12.357C12.6828 12.0315 12.6828 11.5039 12.3573 11.1785L11.1788 9.99996L12.3573 8.82145C12.6828 8.49601 12.6828 7.96837 12.3573 7.64294C12.0319 7.3175 11.5042 7.3175 11.1788 7.64294L10.0003 8.82145L8.82178 7.64294Z" fill="#DF1C2F"/>
  <path fill-rule="evenodd" clip-rule="evenodd" d="M10.0003 1.66663C5.39795 1.66663 1.66699 5.39759 1.66699 9.99996C1.66699 14.6023 5.39795 18.3333 10.0003 18.3333C14.6027 18.3333 18.3337 14.6023 18.3337 9.99996C18.3337 5.39759 14.6027 1.66663 10.0003 1.66663ZM3.33366 9.99996C3.33366 6.31806 6.31843 3.33329 10.0003 3.33329C13.6822 3.33329 16.667 6.31806 16.667 9.99996C16.667 13.6819 13.6822 16.6666 10.0003 16.6666C6.31843 16.6666 3.33366 13.6819 3.33366 9.99996Z" fill="#DF1C2F"/>
</svg>